<svg width="100" height="100" viewBox="0 0 100 100" fill="none" xmlns="http://www.w3.org/2000/svg">
<rect width="100" height="100" fill="black"/>
<path d="M69.1981 61.5116L69.1979 61.5087C68.6869 59.6701 67.5961 58.0517 66.1161 56.8157C65.5449 56.3374 64.9216 55.8845 64.2406 55.4628C63.6634 55.1036 62.9363 55.6328 63.1037 56.2837L63.5134 57.874C64.0327 59.8943 61.8224 61.5329 59.9812 60.4943L55.0322 57.704C51.7802 55.8705 47.7806 55.8705 44.5283 57.704L39.5794 60.4943C37.7383 61.5329 35.5281 59.8914 36.0473 57.874L36.4688 56.2382C36.6362 55.5902 35.9119 55.0611 35.3347 55.4176C34.5785 55.8817 33.8918 56.3854 33.2685 56.9145C31.8112 58.154 30.7983 59.818 30.3251 61.6517L30.3078 61.7195C29.1044 66.4058 30.9744 71.3324 35.0085 74.1085L47.5037 82.7026C48.8713 83.642 50.6923 83.642 52.06 82.7026L64.5551 74.1085C68.6495 71.293 70.5136 66.2594 69.1984 61.5144L69.1981 61.5116Z" fill="#808080"/>
<path d="M68.6734 51.1766C67.9624 45.35 65.8146 39.5161 63.2075 34.2601C60.8747 29.5565 61.4649 23.8042 65.2136 20.1282C66.6679 18.702 65.6376 16.2627 63.5802 16.2627H49.7462C48.6785 16.2627 47.608 16.724 46.8866 17.6436C42.0155 23.8607 32.4783 37.5399 30.8133 51.1766C30.6632 52.4189 32.1495 53.1801 33.1016 52.3483C36.426 49.4449 41.6114 47.3677 49.7433 47.3677C57.8752 47.3677 63.058 49.4477 66.385 52.3483C67.3374 53.1801 68.8234 52.4161 68.6734 51.1766Z" fill="white"/>
</svg>
