<svg width="1029" height="274" viewBox="0 0 1029 274" fill="none" xmlns="http://www.w3.org/2000/svg">
<path d="M5.01999 245.42L18.69 223.6C28.04 233.67 40.51 237.74 54.89 237.74C69.27 237.74 87.02 231.51 87.02 208.01V196.74C77.91 208.25 65.44 214.72 51.06 214.72C22.29 214.72 0 194.58 0 155.98C0 117.38 21.82 97 51.06 97C64.97 97 77.67 102.75 87.02 114.74V99.88H117.47V208C117.47 251.87 83.43 262.66 54.9 262.66C35.24 262.66 19.66 258.11 5.03 245.4L5.01999 245.42ZM87.01 174.69V137.05C81.73 129.62 70.71 124.1 60.88 124.1C43.38 124.1 31.39 136.09 31.39 155.99C31.39 175.89 43.38 187.88 60.88 187.88C70.71 187.88 81.74 182.13 87.01 174.69Z" fill="white"/>
<path d="M211.56 215.69V145.69C211.56 129.63 203.17 124.11 190.22 124.11C178.23 124.11 169.12 130.82 163.85 137.54V215.7H133.4V99.89H163.85V114.75C171.28 106.12 185.67 97.01 204.37 97.01C230.02 97.01 242.25 111.39 242.25 133.93V215.68H211.56V215.69Z" fill="white"/>
<path d="M252.99 157.67C252.99 124.83 276 97.02 314.12 97.02C352.24 97.02 375.49 124.83 375.49 157.67C375.49 190.51 352.48 218.56 314.12 218.56C275.76 218.56 252.99 190.51 252.99 157.67ZM343.85 157.67C343.85 139.69 333.3 124.11 314.12 124.11C294.94 124.11 284.63 139.69 284.63 157.67C284.63 175.65 295.18 191.47 314.12 191.47C333.06 191.47 343.85 175.89 343.85 157.67Z" fill="white"/>
<path d="M437.614 210V64.5455H454.375V118.239H455.795C457.027 116.345 458.731 113.93 460.909 110.994C463.134 108.011 466.307 105.36 470.426 103.04C474.593 100.672 480.227 99.4886 487.33 99.4886C496.515 99.4886 504.612 101.785 511.619 106.378C518.627 110.971 524.096 117.481 528.026 125.909C531.955 134.337 533.92 144.28 533.92 155.739C533.92 167.292 531.955 177.306 528.026 185.781C524.096 194.209 518.651 200.743 511.69 205.384C504.73 209.976 496.705 212.273 487.614 212.273C480.606 212.273 474.995 211.113 470.781 208.793C466.567 206.425 463.324 203.75 461.051 200.767C458.778 197.737 457.027 195.227 455.795 193.239H453.807V210H437.614ZM454.091 155.455C454.091 163.693 455.298 170.961 457.713 177.259C460.128 183.509 463.655 188.409 468.295 191.96C472.936 195.464 478.617 197.216 485.341 197.216C492.348 197.216 498.196 195.369 502.884 191.676C507.618 187.936 511.17 182.917 513.537 176.619C515.952 170.275 517.159 163.22 517.159 155.455C517.159 147.784 515.975 140.871 513.608 134.716C511.288 128.513 507.76 123.613 503.026 120.014C498.338 116.368 492.443 114.545 485.341 114.545C478.523 114.545 472.794 116.274 468.153 119.73C463.513 123.139 460.009 127.921 457.642 134.077C455.275 140.185 454.091 147.311 454.091 155.455ZM559.56 210V100.909H575.753V117.386H576.889C578.878 111.989 582.476 107.609 587.685 104.247C592.893 100.885 598.764 99.2045 605.298 99.2045C606.529 99.2045 608.068 99.2282 609.915 99.2756C611.761 99.3229 613.158 99.3939 614.105 99.4886V116.534C613.537 116.392 612.235 116.179 610.199 115.895C608.21 115.563 606.103 115.398 603.878 115.398C598.575 115.398 593.84 116.51 589.673 118.736C585.554 120.914 582.287 123.944 579.872 127.827C577.505 131.662 576.321 136.042 576.321 140.966V210H559.56ZM633.974 210V100.909H650.735V210H633.974ZM642.496 82.7273C639.229 82.7273 636.412 81.6146 634.045 79.3892C631.725 77.1638 630.565 74.4886 630.565 71.3636C630.565 68.2386 631.725 65.5634 634.045 63.3381C636.412 61.1127 639.229 60 642.496 60C645.763 60 648.557 61.1127 650.877 63.3381C653.245 65.5634 654.428 68.2386 654.428 71.3636C654.428 74.4886 653.245 77.1638 650.877 79.3892C648.557 81.6146 645.763 82.7273 642.496 82.7273ZM722.628 212.273C713.537 212.273 705.511 209.976 698.551 205.384C691.591 200.743 686.146 194.209 682.216 185.781C678.286 177.306 676.321 167.292 676.321 155.739C676.321 144.28 678.286 134.337 682.216 125.909C686.146 117.481 691.615 110.971 698.622 106.378C705.63 101.785 713.726 99.4886 722.912 99.4886C730.014 99.4886 735.625 100.672 739.744 103.04C743.911 105.36 747.083 108.011 749.261 110.994C751.487 113.93 753.215 116.345 754.446 118.239H755.866V64.5455H772.628V210H756.435V193.239H754.446C753.215 195.227 751.463 197.737 749.19 200.767C746.918 203.75 743.674 206.425 739.46 208.793C735.246 211.113 729.635 212.273 722.628 212.273ZM724.901 197.216C731.624 197.216 737.306 195.464 741.946 191.96C746.586 188.409 750.114 183.509 752.528 177.259C754.943 170.961 756.151 163.693 756.151 155.455C756.151 147.311 754.967 140.185 752.599 134.077C750.232 127.921 746.728 123.139 742.088 119.73C737.448 116.274 731.719 114.545 724.901 114.545C717.798 114.545 711.88 116.368 707.145 120.014C702.457 123.613 698.93 128.513 696.562 134.716C694.242 140.871 693.082 147.784 693.082 155.455C693.082 163.22 694.266 170.275 696.634 176.619C699.048 182.917 702.599 187.936 707.287 191.676C712.022 195.369 717.893 197.216 724.901 197.216ZM849.688 253.182C841.591 253.182 834.631 252.14 828.807 250.057C822.983 248.021 818.13 245.322 814.247 241.96C810.412 238.646 807.358 235.095 805.085 231.307L818.438 221.932C819.953 223.92 821.87 226.193 824.19 228.75C826.51 231.354 829.683 233.603 833.707 235.497C837.779 237.438 843.106 238.409 849.688 238.409C858.494 238.409 865.762 236.278 871.491 232.017C877.221 227.756 880.085 221.08 880.085 211.989V189.83H878.665C877.434 191.818 875.682 194.28 873.409 197.216C871.184 200.104 867.964 202.685 863.75 204.957C859.583 207.183 853.949 208.295 846.847 208.295C838.04 208.295 830.133 206.212 823.125 202.045C816.165 197.879 810.649 191.818 806.577 183.864C802.552 175.909 800.54 166.25 800.54 154.886C800.54 143.712 802.505 133.982 806.435 125.696C810.365 117.363 815.833 110.923 822.841 106.378C829.848 101.785 837.945 99.4886 847.131 99.4886C854.233 99.4886 859.867 100.672 864.034 103.04C868.248 105.36 871.468 108.011 873.693 110.994C875.966 113.93 877.718 116.345 878.949 118.239H880.653V100.909H896.847V213.125C896.847 222.5 894.716 230.123 890.455 235.994C886.241 241.913 880.559 246.245 873.409 248.991C866.307 251.785 858.4 253.182 849.688 253.182ZM849.119 193.239C855.843 193.239 861.525 191.7 866.165 188.622C870.805 185.545 874.332 181.117 876.747 175.341C879.162 169.564 880.369 162.652 880.369 154.602C880.369 146.742 879.186 139.806 876.818 133.793C874.451 127.779 870.947 123.068 866.307 119.659C861.667 116.25 855.938 114.545 849.119 114.545C842.017 114.545 836.098 116.345 831.364 119.943C826.676 123.542 823.149 128.371 820.781 134.432C818.461 140.492 817.301 147.216 817.301 154.602C817.301 162.178 818.485 168.878 820.852 174.702C823.267 180.478 826.818 185.024 831.506 188.338C836.241 191.605 842.112 193.239 849.119 193.239ZM973.267 212.273C962.756 212.273 953.688 209.953 946.065 205.312C938.49 200.625 932.642 194.091 928.523 185.71C924.451 177.282 922.415 167.481 922.415 156.307C922.415 145.133 924.451 135.284 928.523 126.761C932.642 118.191 938.371 111.515 945.71 106.733C953.097 101.903 961.714 99.4886 971.562 99.4886C977.244 99.4886 982.855 100.436 988.395 102.33C993.935 104.223 998.977 107.301 1003.52 111.562C1008.07 115.777 1011.69 121.364 1014.39 128.324C1017.09 135.284 1018.44 143.854 1018.44 154.034V161.136H934.347V146.648H1001.39C1001.39 140.492 1000.16 135 997.699 130.17C995.284 125.341 991.828 121.529 987.33 118.736C982.879 115.942 977.623 114.545 971.562 114.545C964.886 114.545 959.11 116.203 954.233 119.517C949.403 122.784 945.687 127.045 943.082 132.301C940.478 137.557 939.176 143.191 939.176 149.205V158.864C939.176 167.102 940.597 174.086 943.438 179.815C946.326 185.497 950.327 189.83 955.44 192.812C960.554 195.748 966.496 197.216 973.267 197.216C977.67 197.216 981.648 196.6 985.199 195.369C988.797 194.091 991.899 192.197 994.503 189.688C997.107 187.131 999.119 183.958 1000.54 180.17L1016.73 184.716C1015.03 190.208 1012.16 195.038 1008.14 199.205C1004.11 203.324 999.143 206.544 993.224 208.864C987.306 211.136 980.653 212.273 973.267 212.273Z" fill="#226C57"/>
</svg>
