<svg width="400" height="400" viewBox="0 0 400 400" fill="none" xmlns="http://www.w3.org/2000/svg">
<path d="M200 400C310.834 400 400 310.834 400 200C400 89.166 310.834 0 200 0C89.166 0 0 89.166 0 200C0 310.834 89.166 400 200 400Z" fill="black"/>
<path fill-rule="evenodd" clip-rule="evenodd" d="M211.827 71.4641C209.076 74.9649 204.774 77.2154 199.974 77.2154C195.148 77.2154 190.871 74.9649 188.12 71.4641C186.12 68.9135 184.92 65.6628 184.92 62.162C184.92 57.561 186.97 53.435 190.221 50.6844C192.847 48.4089 196.273 47.0586 199.974 47.0586C203.674 47.0586 207.1 48.4339 209.726 50.6844C213.027 53.435 215.078 57.561 215.078 62.162C215.078 65.6628 213.877 68.9135 211.827 71.4641ZM86.6947 98.5337L102.632 111.666H102.657C120.847 91.6788 144.842 77.7178 171.137 71.7667L167.76 51.3525C136.559 58.1824 108.112 74.7297 86.6947 98.5337ZM86.6947 301.434L102.637 288.302C120.832 308.29 144.833 322.25 171.137 328.202L167.759 348.616C136.549 341.786 108.093 325.239 86.6947 301.434ZM232.254 348.616L228.876 328.202C255.204 322.226 279.205 308.29 297.351 288.302L313.318 301.434C291.919 325.239 263.464 341.761 232.254 348.616ZM210.124 326.785C207.448 324.285 203.872 322.784 199.971 322.784C196.07 322.784 192.519 324.26 189.819 326.785C186.818 329.536 184.917 333.487 184.917 337.888C184.917 341.464 186.142 344.764 188.243 347.339C190.993 350.765 195.245 352.941 199.971 352.941C204.697 352.941 208.949 350.765 211.699 347.339C213.85 344.739 215.075 341.464 215.075 337.888C215.075 333.487 213.175 329.536 210.148 326.785H210.124ZM228.876 71.7667L232.254 51.3525C263.464 58.2074 291.919 74.7297 313.318 98.5337L297.351 111.666C279.205 91.6788 255.204 77.7429 228.876 71.7667ZM326.43 239.711L345.719 246.96C355.402 216.458 355.352 183.496 345.544 153.044L326.23 160.343C334.411 186.08 334.411 213.874 326.43 239.711ZM323.202 254.697C327.102 254.697 330.678 256.198 333.355 258.699H333.38C336.405 261.449 338.305 265.4 338.305 269.801C338.305 273.377 337.081 276.653 334.93 279.253C332.179 282.679 327.928 284.854 323.202 284.854C318.476 284.854 314.225 282.679 311.474 279.253C309.374 276.678 308.148 273.377 308.148 269.801C308.148 265.4 310.049 261.449 313.049 258.699C315.75 256.173 319.301 254.697 323.202 254.697ZM333.357 119.127C330.681 116.627 327.105 115.127 323.204 115.127C319.303 115.127 315.752 116.602 313.052 119.127C310.051 121.878 308.15 125.829 308.15 130.23C308.15 133.806 309.376 137.107 311.477 139.682C314.227 143.108 318.479 145.283 323.204 145.283C327.93 145.283 332.182 143.108 334.932 139.682C337.083 137.081 338.308 133.806 338.308 130.23C338.308 125.829 336.408 121.878 333.382 119.127H333.357ZM54.28 246.96L73.5698 239.711C65.5887 213.874 65.5887 186.08 73.77 160.343L54.4551 153.044C44.6476 183.496 44.5976 216.458 54.28 246.96ZM86.9118 258.699C84.2361 256.198 80.6602 254.697 76.7591 254.697C72.8581 254.697 69.3071 256.173 66.6065 258.699C63.6057 261.449 61.7052 265.4 61.7052 269.801C61.7052 273.377 62.9304 276.678 65.031 279.253C67.7817 282.679 72.0328 284.854 76.7591 284.854C81.4854 284.854 85.7365 282.679 88.4872 279.253C90.6378 276.653 91.8631 273.377 91.8631 269.801C91.8631 265.4 89.9626 261.449 86.9369 258.699H86.9118ZM76.758 115.127C80.659 115.127 84.235 116.627 86.9107 119.127H86.9356C89.9615 121.878 91.8619 125.829 91.8619 130.23C91.8619 133.806 90.6366 137.081 88.4861 139.682C85.7353 143.108 81.4842 145.283 76.758 145.283C72.0317 145.283 67.7806 143.108 65.0298 139.682C62.9293 137.107 61.704 133.806 61.704 130.23C61.704 125.829 63.6045 121.878 66.6052 119.127C69.306 116.602 72.8569 115.127 76.758 115.127ZM179.746 208.91C179.746 210.544 180.623 212.054 182.051 212.872L197.664 221.785C199.117 222.603 200.872 222.603 202.275 221.785L217.938 212.872C219.341 212.054 220.243 210.544 220.243 208.91V191.082C220.243 189.448 219.341 187.937 217.938 187.12L202.275 178.207C200.872 177.389 199.093 177.389 197.664 178.207L182.051 187.12C180.597 187.937 179.746 189.448 179.746 191.082V208.91ZM199.971 263.771C203.872 263.771 207.448 265.271 210.124 267.772H210.148C213.175 270.522 215.075 274.474 215.075 278.874C215.075 282.45 213.85 285.726 211.699 288.326C208.949 291.752 204.697 293.928 199.971 293.928C195.245 293.928 190.993 291.752 188.243 288.326C186.142 285.751 184.917 282.45 184.917 278.874C184.917 274.474 186.818 270.522 189.819 267.772C192.519 265.246 196.07 263.771 199.971 263.771ZM211.699 111.703C208.949 108.249 204.697 106.072 199.971 106.072C195.245 106.072 190.993 108.249 188.243 111.703C186.142 114.306 184.917 117.584 184.917 121.163C184.917 125.518 186.767 129.472 189.768 132.225C192.494 134.702 196.02 136.229 199.971 136.229C203.922 136.229 207.498 134.702 210.174 132.225C213.175 129.472 215.075 125.518 215.075 121.163C215.075 117.584 213.85 114.281 211.699 111.703ZM230.584 138.208L237.765 119.01C305.14 150.931 305.19 249.023 237.765 280.995L230.584 261.797C280.504 236.674 280.529 163.356 230.584 138.208ZM162.234 119.01L169.415 138.208C119.47 163.356 119.495 236.674 169.415 261.797L162.234 280.995C94.8097 249.023 94.8595 150.931 162.234 119.01Z" fill="white"/>
</svg>
