<svg width="100" height="100" viewBox="0 0 100 100" fill="none" xmlns="http://www.w3.org/2000/svg">
<g clip-path="url(#clip0_27945_43246)">
<circle cx="50" cy="50" r="50" fill="#50AF95"/>
<path fill-rule="evenodd" clip-rule="evenodd" d="M27.8159 22.2996L15.0525 49.1564C15.0039 49.2563 14.9885 49.3691 15.0086 49.4784C15.0286 49.5877 15.083 49.6877 15.1638 49.7637L49.6349 82.8534C49.7328 82.9474 49.8632 82.9999 49.9989 82.9999C50.1345 82.9999 50.2649 82.9474 50.3628 82.8534L84.8339 49.7658C84.9147 49.6897 84.9691 49.5897 84.9892 49.4805C85.0092 49.3712 84.9938 49.2583 84.9452 49.1584L72.1818 22.3017C72.1406 22.2115 72.0743 22.1351 71.991 22.0816C71.9076 22.0281 71.8106 21.9998 71.7116 22H28.2903C28.1908 21.9988 28.093 22.0264 28.0089 22.0796C27.9247 22.1327 27.8577 22.2091 27.8159 22.2996Z" fill="white"/>
<path fill-rule="evenodd" clip-rule="evenodd" d="M54.4272 51.9137C54.1797 51.9323 52.9011 52.0088 50.049 52.0088C47.7805 52.0088 46.1698 51.9406 45.6048 51.9137C36.838 51.5274 30.2944 49.9986 30.2944 48.1682C30.2944 46.3378 36.838 44.8111 45.6048 44.4186V50.3912C46.1781 50.4325 47.8196 50.5296 50.0882 50.5296C52.8104 50.5296 54.1735 50.4159 54.4189 50.3932V44.4227C63.1671 44.8132 69.6963 46.342 69.6963 48.1682C69.6963 49.9945 63.1692 51.5233 54.4189 51.9117L54.4272 51.9137ZM54.4272 43.805V38.4605H66.6359V30.3105H33.3961V38.4605H45.6027V43.803C35.6811 44.2595 28.2197 46.2284 28.2197 48.5876C28.2197 50.9469 35.6811 52.9136 45.6027 53.3723V70.4986H54.4251V53.3661C64.3241 52.9095 71.773 50.9427 71.773 48.5856C71.773 46.2284 64.3303 44.2616 54.4251 43.803L54.4272 43.805Z" fill="#50AF95"/>
</g>
<defs>
<clipPath id="clip0_27945_43246">
<rect width="100" height="100" fill="white"/>
</clipPath>
</defs>
</svg>
